<?xml version="1.0" standalone="no"?>
<!DOCTYPE svg PUBLIC "-//W3C//DTD SVG 20010904//EN"
 "http://www.w3.org/TR/2001/REC-SVG-20010904/DTD/svg10.dtd">
<svg version="1.0" xmlns="http://www.w3.org/2000/svg"
 width="700.000000pt" height="700.000000pt" viewBox="0 0 700.000000 700.000000"
 preserveAspectRatio="xMidYMid meet">
<metadata>
Created by potrace 1.14, written by Peter Selinger 2001-2017
</metadata>
<g transform="translate(0.000000,700.000000) scale(0.100000,-0.100000)"
fill="#000000" stroke="none">
<path d="M3220 6387 c-3 -2 -43 -7 -90 -11 -95 -7 -118 -11 -240 -32 -47 -8
-98 -18 -115 -20 -16 -3 -54 -12 -84 -21 -29 -8 -59 -16 -65 -17 -114 -23
-411 -149 -530 -224 -92 -58 -124 -79 -176 -117 -86 -63 -99 -74 -200 -175
-114 -114 -132 -135 -197 -231 -165 -245 -242 -513 -237 -831 4 -276 50 -480
156 -693 195 -393 573 -660 1163 -820 89 -24 444 -99 525 -110 8 -1 42 -7 75
-13 60 -12 127 -23 155 -27 112 -15 390 -62 475 -81 39 -8 79 -16 90 -18 74
-15 280 -72 358 -100 313 -113 464 -255 529 -493 31 -117 31 -357 -1 -468
-114 -405 -522 -655 -1161 -712 -151 -14 -515 -6 -605 12 -11 2 -38 6 -60 9
-60 8 -202 35 -270 53 -33 8 -68 17 -77 18 -10 2 -79 22 -155 45 -228 69 -505
184 -673 281 -114 65 -205 122 -208 130 -2 5 -8 9 -13 9 -10 0 -114 75 -199
144 -37 30 -53 36 -92 36 l-48 0 0 -67 0 -68 104 -158 c203 -307 426 -537 716
-740 52 -36 100 -70 105 -74 128 -101 729 -311 970 -338 33 -4 69 -9 80 -12
24 -5 375 -4 425 1 19 2 72 7 117 10 46 4 91 9 100 10 10 2 43 7 73 11 30 4
64 9 75 12 11 2 52 10 90 18 274 55 599 192 840 354 123 83 147 102 250 199
253 241 429 586 479 942 13 88 14 360 3 420 -3 14 -8 48 -12 75 -25 192 -107
402 -219 558 -232 323 -680 558 -1301 683 -11 2 -31 6 -45 9 -28 6 -149 31
-195 39 -47 9 -587 105 -620 111 -32 5 -97 18 -105 20 -3 1 -25 5 -50 9 -311
56 -567 144 -712 244 -90 63 -185 177 -217 264 -7 18 -17 42 -22 53 -36 82
-54 298 -36 432 26 192 149 369 352 505 198 133 425 206 730 235 114 10 506 7
593 -5 82 -12 108 -29 110 -70 2 -49 41 -186 72 -247 32 -67 119 -163 190
-212 87 -59 184 -91 345 -113 44 -6 91 -13 105 -16 14 -2 77 -12 140 -21 63
-9 121 -20 127 -25 7 -6 39 -49 70 -96 54 -81 73 -107 98 -136 6 -6 22 -27 36
-46 15 -19 43 -52 62 -73 54 -56 59 -87 35 -211 -23 -118 -17 -152 27 -176 32
-17 91 -5 110 23 8 13 17 54 21 92 4 39 8 77 10 85 1 8 3 22 3 32 1 17 2 17
101 3 129 -18 152 -13 177 39 13 29 14 39 4 64 -18 42 -59 59 -149 61 -123 3
-157 16 -194 70 -35 51 -162 217 -221 290 -37 45 -38 48 -33 106 3 33 8 71 11
85 3 14 12 72 20 130 18 118 22 142 34 220 9 55 7 203 -3 249 -44 191 -207
370 -416 455 -143 59 -418 113 -716 141 -32 3 -79 8 -104 11 -63 6 -664 16
-670 11z"/>
</g>
</svg>
