<svg width="356" height="134.4202112169533" viewBox="0 0 356 134.4202112169533" class="css-1j8o68f">
    <defs id="SvgjsDefs1055"></defs>
    <g id="SvgjsG1056" featurekey="symbolFeature-0"
       transform="matrix(1.4641289710998535,0,0,1.4641289710998535,-22.641297960047215,-5.994141590848391)"
       fill="#000000">
        <path xmlns="http://www.w3.org/2000/svg"
              d="M83.764,69.013c0,3.451-0.812,6.854-2.42,10.239c-1.607,3.366-3.857,6.226-6.752,8.562  c-3.164,2.537-6.869,4.517-11.086,5.938c-4.229,1.439-9.305,2.151-15.264,2.151c-3.92,0-7.68-0.979-11.342-2.312  c-2.011-0.733-4.082-1.39-5.962-2.43c-1.132-0.626-2.191-1.398-3.251-2.141c-2.992-2.095-5.667-4.637-7.995-7.447  c-0.79-0.955-1.524-1.95-2.205-2.983c-0.355-0.537-0.696-1.084-1.028-1.635c-0.225-0.371-0.995-1.26-0.995-1.684v-1.202h0.828  c4.485,3.725,9.662,6.603,15.536,8.614c5.872,2.031,11.373,3.047,16.533,3.047c7.293,0,12.981-1.37,17.042-4.113  c4.061-2.741,6.107-6.378,6.107-10.948c0-3.926-0.963-6.82-2.893-8.682c-1.928-1.861-4.838-3.317-8.766-4.35  c-2.979-0.795-6.209-1.437-9.679-1.963c-3.47-0.507-7.142-1.167-11.035-1.964c-7.852-1.657-13.672-4.5-17.463-8.526  c-3.791-4.029-5.67-9.275-5.67-15.74c0-7.412,3.132-13.487,9.394-18.243c6.26-4.737,14.214-7.107,23.86-7.107  c3.615,0,7.23,0.2,10.814,0.663c2.973,0.382,6.145,0.832,8.932,1.986c3.834,1.589,6.51,5.1,6.162,9.366  c-0.016,0.203-0.031,0.407-0.066,0.61l-0.627,4.111l-0.625,4.08c0.66,0.854,1.316,1.711,1.98,2.562  c0.521,0.667,1.047,1.334,1.564,2.005c0.438,0.569,0.854,1.524,1.51,1.873c1.002,0.531,2.688,0.323,3.795,0.481  c0.475,0.068,0.795,0.491,0.729,0.948c-0.051,0.474-0.475,0.795-0.949,0.745l-0.846-0.103c-0.779-0.155-1.699-0.306-2.498-0.308  c-0.316,1.041-0.346,2.24-0.461,3.321c-0.053,0.473-0.475,0.794-0.949,0.728c-0.459-0.052-0.795-0.475-0.729-0.948  c0.135-1.041,0.771-2.909,0.426-3.908c-0.275-0.79-1.07-1.397-1.58-2.036c-0.566-0.716-1.113-1.453-1.67-2.179  c-0.307-0.407-1.564-2.63-2.084-2.708c0,0-7.256-1.1-7.258-1.1c-2.154-0.327-3.941-1.38-5.406-2.973  c-1.473-1.602-1.879-3.546-2.197-5.628c-0.189-1.263-1.723-1.135-2.688-1.239c-1.777-0.194-3.561-0.178-5.346-0.178  c-6.297,0-11.374,1.321-15.198,3.943c-3.825,2.606-5.736,5.974-5.736,10.103c0,3.689,0.948,6.583,2.86,8.683  c1.895,2.115,5.246,3.723,10.052,4.823c2.538,0.559,6.143,1.234,10.813,2.031c4.688,0.794,8.648,1.606,11.914,2.436  c6.584,1.744,11.541,4.383,14.857,7.903C82.088,57.725,83.764,62.666,83.764,69.013z"></path>
        <path xmlns="http://www.w3.org/2000/svg"
              d="M83.764,69.013c0,3.451-0.812,6.854-2.42,10.239c-1.607,3.366-3.857,6.226-6.752,8.562  c-3.164,2.537-6.869,4.517-11.086,5.938c-4.229,1.439-9.305,2.151-15.264,2.151c-3.92,0-7.68-0.979-11.342-2.312  c-2.011-0.733-4.082-1.39-5.962-2.43c-1.132-0.626-2.191-1.398-3.251-2.141c-2.992-2.095-5.667-4.637-7.995-7.447  c-0.79-0.955-1.524-1.95-2.205-2.983c-0.355-0.537-0.696-1.084-1.028-1.635c-0.225-0.371-0.995-1.26-0.995-1.684v-1.202h0.828  c4.485,3.725,9.662,6.603,15.536,8.614c5.872,2.031,11.373,3.047,16.533,3.047c7.293,0,12.981-1.37,17.042-4.113  c4.061-2.741,6.107-6.378,6.107-10.948c0-3.926-0.963-6.82-2.893-8.682c-1.928-1.861-4.838-3.317-8.766-4.35  c-2.979-0.795-6.209-1.437-9.679-1.963c-3.47-0.507-7.142-1.167-11.035-1.964c-7.852-1.657-13.672-4.5-17.463-8.526  c-3.791-4.029-5.67-9.275-5.67-15.74c0-7.412,3.132-13.487,9.394-18.243c6.26-4.737,14.214-7.107,23.86-7.107  c3.615,0,7.23,0.2,10.814,0.663c2.973,0.382,6.145,0.832,8.932,1.986c3.834,1.589,6.51,5.1,6.162,9.366  c-0.016,0.203-0.031,0.407-0.066,0.61l-0.627,4.111l-0.625,4.08c0.66,0.854,1.316,1.711,1.98,2.562  c0.521,0.667,1.047,1.334,1.564,2.005c0.438,0.569,0.854,1.524,1.51,1.873c1.002,0.531,2.688,0.323,3.795,0.481  c0.475,0.068,0.795,0.491,0.729,0.948c-0.051,0.474-0.475,0.795-0.949,0.745l-0.846-0.103c-0.779-0.155-1.699-0.306-2.498-0.308  c-0.316,1.041-0.346,2.24-0.461,3.321c-0.053,0.473-0.475,0.794-0.949,0.728c-0.459-0.052-0.795-0.475-0.729-0.948  c0.135-1.041,0.771-2.909,0.426-3.908c-0.275-0.79-1.07-1.397-1.58-2.036c-0.566-0.716-1.113-1.453-1.67-2.179  c-0.307-0.407-1.564-2.63-2.084-2.708c0,0-7.256-1.1-7.258-1.1c-2.154-0.327-3.941-1.38-5.406-2.973  c-1.473-1.602-1.879-3.546-2.197-5.628c-0.189-1.263-1.723-1.135-2.688-1.239c-1.777-0.194-3.561-0.178-5.346-0.178  c-6.297,0-11.374,1.321-15.198,3.943c-3.825,2.606-5.736,5.974-5.736,10.103c0,3.689,0.948,6.583,2.86,8.683  c1.895,2.115,5.246,3.723,10.052,4.823c2.538,0.559,6.143,1.234,10.813,2.031c4.688,0.794,8.648,1.606,11.914,2.436  c6.584,1.744,11.541,4.383,14.857,7.903C82.088,57.725,83.764,62.666,83.764,69.013z"></path>
    </g>
    <g id="SvgjsG1057" featurekey="textGroupContainer" transform="matrix(1,0,0,1,355,43)" fill="#000000">
        <rect xmlns="http://www.w3.org/2000/svg" y="0" height="1" width="1" opacity="0"></rect>
        <rect xmlns="http://www.w3.org/2000/svg" y="0" x="-235" width="3" height="48"></rect>
    </g>
    <g id="SvgjsG1058" featurekey="vMvB0T-0"
       transform="matrix(1.6501648426055908,0,0,1.6501648426055908,137.5049518038858,45.03300436713549)" fill="#000000">
        <path d="M0.3 18.82 q0.06 -0.66 0.41 -1.32 t0.83 -1.08 q2.14 1.3 4.06 1.3 q0.84 0 1.23 -0.38 t0.39 -0.94 q0 -0.94 -1.26 -1.48 l-2.36 -1 q-1.38 -0.62 -2.12 -1.49 t-0.74 -2.21 q0 -0.92 0.37 -1.68 t1.04 -1.32 t1.59 -0.87 t2.04 -0.31 q2.24 0 4.52 1.14 q-0.1 1.54 -1.08 2.4 q-2.04 -0.98 -3.6 -0.98 q-0.8 0 -1.2 0.36 t-0.4 0.82 q0 0.78 1.18 1.26 l2.4 1.02 q1.52 0.64 2.27 1.64 t0.75 2.32 q0 0.94 -0.34 1.72 t-1.01 1.35 t-1.67 0.89 t-2.34 0.32 q-2.6 0 -4.96 -1.48 z M23.28 6.34 l0 8.62 q0 2.56 -1.4 3.95 t-4 1.39 t-4.01 -1.39 t-1.41 -3.95 l0 -8.62 l0.14 -0.14 l1.18 0 q1.9 0 1.9 2.04 l0 6.76 q0 1.4 0.5 2.08 t1.7 0.68 t1.7 -0.68 t0.5 -2.08 l0 -8.66 q0.62 -0.12 1.6 -0.12 q0.96 0 1.6 0.12 z M35.92 10.56 q0 0.66 -0.2 1.25 t-0.53 1.06 t-0.78 0.82 t-0.93 0.53 q1.04 0.38 1.54 1.84 l0.6 1.7 q0.34 1 1 1.48 q-0.3 0.4 -0.9 0.67 t-1.32 0.27 t-1.12 -0.41 t-0.74 -1.43 l-0.72 -2.1 q-0.22 -0.6 -0.59 -0.92 t-1.11 -0.32 l-0.82 0 l0 5 q-0.64 0.12 -1.6 0.12 t-1.58 -0.12 l0 -13.56 l0.14 -0.14 q1.74 -0.04 2.93 -0.06 t1.87 -0.02 q1.1 0 2 0.27 t1.53 0.81 t0.98 1.36 t0.35 1.9 z M29.3 8.62 l0 3.92 q0.9 0 1.54 -0.03 t1.03 -0.24 t0.59 -0.59 t0.2 -1.1 q0 -1.94 -1.88 -1.94 l-0.83 0 t-0.65 -0.02 z M38.46000000000001 20 l0 -13.66 q0.62 -0.12 1.6 -0.12 t1.62 0.12 l0 13.66 q-0.64 0.12 -1.62 0.12 t-1.6 -0.12 z M43.540000000000006 18.82 q0.06 -0.66 0.41 -1.32 t0.83 -1.08 q2.14 1.3 4.06 1.3 q0.84 0 1.23 -0.38 t0.39 -0.94 q0 -0.94 -1.26 -1.48 l-2.36 -1 q-1.38 -0.62 -2.12 -1.49 t-0.74 -2.21 q0 -0.92 0.37 -1.68 t1.04 -1.32 t1.59 -0.87 t2.04 -0.31 q2.24 0 4.52 1.14 q-0.1 1.54 -1.08 2.4 q-2.04 -0.98 -3.6 -0.98 q-0.8 0 -1.2 0.36 t-0.4 0.82 q0 0.78 1.18 1.26 l2.4 1.02 q1.52 0.64 2.27 1.64 t0.75 2.32 q0 0.94 -0.34 1.72 t-1.01 1.35 t-1.67 0.89 t-2.34 0.32 q-2.6 0 -4.96 -1.48 z M61.08000000000001 8.98 l0.02 1.48 l0 9.54 q-0.68 0.12 -1.62 0.12 t-1.58 -0.12 l0 -11.02 l-1.28 0.02 l-2.06 0 q-0.12 -0.58 -0.12 -1.33 t0.12 -1.33 l9.9 0 q0.16 0.52 0.16 1.26 t-0.4 1.07 t-1.28 0.33 l-0.58 0 l-1.26 -0.02 l-0.02 0 z M69.24000000000001 15.96 l-0.02 1.44 l0 0.02 q0.92 -0.04 1.48 -0.04 l4.64 0 q0 0.74 -0.06 1.14 q-0.24 1.54 -2.04 1.54 l-5.32 0 q-0.86 0 -1.35 -0.5 t-0.49 -1.36 l0 -11.72 l0.14 -0.14 l8.62 0 q0.12 0.58 0.12 1.26 t-0.28 1.42 l-5.46 0 l0.02 1.44 l0 1.4 q0.52 -0.02 1.36 -0.02 l3.06 0 q0.18 0.56 0.18 1.28 t-0.18 1.32 l-4.42 0 l0 1.52 z M87.36000000000001 10.56 q0 0.66 -0.2 1.25 t-0.53 1.06 t-0.78 0.82 t-0.93 0.53 q1.04 0.38 1.54 1.84 l0.6 1.7 q0.34 1 1 1.48 q-0.3 0.4 -0.9 0.67 t-1.32 0.27 t-1.12 -0.41 t-0.74 -1.43 l-0.72 -2.1 q-0.22 -0.6 -0.59 -0.92 t-1.11 -0.32 l-0.82 0 l0 5 q-0.64 0.12 -1.6 0.12 t-1.58 -0.12 l0 -13.56 l0.14 -0.14 q1.74 -0.04 2.93 -0.06 t1.87 -0.02 q1.1 0 2 0.27 t1.53 0.81 t0.98 1.36 t0.35 1.9 z M80.74000000000002 8.62 l0 3.92 q0.9 0 1.54 -0.03 t1.03 -0.24 t0.59 -0.59 t0.2 -1.1 q0 -1.94 -1.88 -1.94 l-0.83 0 t-0.65 -0.02 z M89.64000000000001 17.42 q0.34 -0.18 0.74 -0.27 t0.82 -0.09 q0.92 0 1.58 0.36 q0.24 0.52 0.24 1.22 q0 0.34 -0.06 0.65 t-0.18 0.55 q-0.56 0.38 -1.58 0.38 q-1 0 -1.56 -0.38 q-0.12 -0.24 -0.18 -0.55 t-0.06 -0.65 q0 -0.7 0.24 -1.22 z M95.18 19.96 l1.06 -13.6 q0.88 -0.16 2.08 -0.16 t2.1 0.16 l1.18 4.9 q0.7 3.32 0.74 3.62 l0.14 0 q0.08 -0.5 0.74 -3.62 l1.2 -4.9 q0.88 -0.16 2.08 -0.16 t2.1 0.16 l1.06 13.6 q-0.62 0.16 -1.53 0.16 t-1.49 -0.1 l-0.32 -5.56 q-0.14 -3.32 -0.16 -4.62 l-0.12 0 l-1.98 8.14 q-0.72 0.12 -1.65 0.12 t-1.65 -0.12 l-1.96 -8.14 l-0.14 0 q0 1.78 -0.16 4.62 l-0.3 5.56 q-0.58 0.1 -1.49 0.1 t-1.53 -0.16 z M115.4 15.96 l-0.02 1.44 l0 0.02 q0.92 -0.04 1.48 -0.04 l4.64 0 q0 0.74 -0.06 1.14 q-0.24 1.54 -2.04 1.54 l-5.32 0 q-0.86 0 -1.35 -0.5 t-0.49 -1.36 l0 -11.72 l0.14 -0.14 l8.62 0 q0.12 0.58 0.12 1.26 t-0.28 1.42 l-5.46 0 l0.02 1.44 l0 1.4 q0.52 -0.02 1.36 -0.02 l3.06 0 q0.18 0.56 0.18 1.28 t-0.18 1.32 l-4.42 0 l0 1.52 z"></path>
    </g></svg>